<svg width="29" height="14" viewBox="0 0 29 14" fill="none" xmlns="http://www.w3.org/2000/svg">
<path fill-rule="evenodd" clip-rule="evenodd" d="M24.9596 5.87225C24.5156 5.87225 24.122 5.9711 23.7266 6.06995C23.234 3.01426 20.7194 1.78123 20.7194 1.78123C17.466 -0.0431624 14.9029 1.43612 14.9029 1.43612C14.0149 1.78123 14.0652 2.42116 14.0652 2.42116V12.7727C14.0652 13.2652 14.5092 13.6606 15.0017 13.6606H24.9596C27.0302 13.6606 28.7558 11.9351 28.7558 9.7673C28.7558 7.59953 27.0302 5.87398 24.9596 5.87398V5.87225Z" fill="white"/>
<path fill-rule="evenodd" clip-rule="evenodd" d="M1.24764 9.91305C1.24764 10.7021 1.10023 11.5883 0.951086 12.0826C0.951086 12.1814 0.852235 12.2803 0.704827 12.2803C0.507126 12.2803 0.408276 12.1814 0.408276 12.0826C0.309425 11.59 0.111725 10.7021 0.111725 9.91305C0.111725 9.07543 0.309425 8.2378 0.408276 7.64643C0.408276 7.54758 0.507126 7.49902 0.704827 7.49902C0.852235 7.49902 0.951086 7.54758 0.951086 7.64643C1.09849 8.2378 1.24764 9.07543 1.24764 9.91305Z" fill="white"/>
<path fill-rule="evenodd" clip-rule="evenodd" d="M3.26975 9.91323C3.26975 11.0474 3.12234 12.3775 2.9732 13.1163C2.9732 13.2637 2.87435 13.3626 2.72694 13.3626C2.52924 13.3626 2.43039 13.2637 2.43039 13.1163C2.33154 12.3775 2.18413 11.0457 2.18413 9.91323C2.18413 8.78078 2.33154 7.49746 2.43039 6.65983C2.43039 6.51242 2.52924 6.41357 2.72694 6.41357C2.87435 6.41357 2.9732 6.51242 2.9732 6.65983C3.1206 7.54775 3.26975 8.73049 3.26975 9.91323Z" fill="white"/>
<path fill-rule="evenodd" clip-rule="evenodd" d="M5.24153 10.2582C5.24153 11.3923 5.09413 12.7225 4.94498 13.4127C4.94498 13.5601 4.84613 13.7093 4.69873 13.7093C4.55132 13.7093 4.40217 13.5619 4.40217 13.4127C4.30332 12.7225 4.15591 11.3923 4.15591 10.2582C4.15591 9.12399 4.30332 7.8424 4.40217 6.95622C4.40217 6.85737 4.54958 6.70996 4.69873 6.70996C4.84787 6.70996 4.94498 6.85737 4.94498 6.95622C5.09239 7.84414 5.24153 9.07543 5.24153 10.2582Z" fill="white"/>
<path fill-rule="evenodd" clip-rule="evenodd" d="M7.21335 9.17435C7.21335 10.6536 7.06594 12.4277 6.96709 13.3642C6.91854 13.5116 6.81968 13.7093 6.67054 13.7093C6.5214 13.7093 6.42428 13.5116 6.37399 13.3642C6.27514 12.3792 6.12773 10.6536 6.12773 9.17435C6.12773 7.69507 6.27514 6.01981 6.37399 4.93593C6.42255 4.73823 6.5214 4.59082 6.67054 4.59082C6.81968 4.59082 6.9168 4.73823 6.96709 4.93593C7.1145 6.07011 7.21335 7.64651 7.21335 9.17435Z" fill="white"/>
<path fill-rule="evenodd" clip-rule="evenodd" d="M9.18515 8.73013C9.18515 10.3568 9.03774 12.2783 8.8886 13.3137C8.8886 13.5114 8.78975 13.7073 8.64234 13.7073C8.49493 13.7073 8.39608 13.5096 8.34579 13.3137C8.24694 12.2783 8.09953 10.3568 8.09953 8.73013C8.09953 7.10344 8.24694 5.32933 8.34579 4.0963C8.34579 3.8986 8.4932 3.70264 8.64234 3.70264C8.79149 3.70264 8.8886 3.90034 8.8886 4.0963C9.03601 5.32933 9.18515 7.05314 9.18515 8.73013Z" fill="white"/>
<path fill-rule="evenodd" clip-rule="evenodd" d="M11.157 8.87933C11.157 10.4575 11.0095 12.3304 10.9107 13.3155C10.8621 13.5132 10.7633 13.7091 10.6141 13.7091C10.465 13.7091 10.3679 13.5114 10.3176 13.3155C10.2187 12.3304 10.0713 10.4557 10.0713 8.87933C10.0713 7.30293 10.2187 5.57738 10.3176 4.39464C10.3662 4.19694 10.465 4.00098 10.6141 4.00098C10.7633 4.00098 10.8604 4.19868 10.9107 4.39464C11.0095 5.57738 11.157 7.25437 11.157 8.87933Z" fill="white"/>
<path fill-rule="evenodd" clip-rule="evenodd" d="M13.1773 8.23779C13.1773 10.0622 13.0299 12.1311 12.8808 13.2653C12.8808 13.5115 12.7819 13.7092 12.5842 13.7092C12.4368 13.7092 12.3379 13.5115 12.3379 13.2653C12.1905 12.1311 12.0414 10.0622 12.0414 8.23779C12.0414 6.41339 12.1888 4.49188 12.3379 3.11144C12.3379 2.91374 12.4368 2.71777 12.5842 2.71777C12.7819 2.71777 12.8808 2.91547 12.8808 3.11144C13.0282 4.49188 13.1773 6.41339 13.1773 8.23779Z" fill="white"/>
</svg>
