<svg width="28" height="28" viewBox="0 0 28 28" fill="none" xmlns="http://www.w3.org/2000/svg">
<path fill-rule="evenodd" clip-rule="evenodd" d="M7.58246 0.386719H20.1538C24.1928 0.386719 27.5138 3.70948 27.5138 7.74674V20.2539C27.5138 24.2929 24.1911 27.6139 20.1538 27.6139H7.58246C3.54347 27.6139 0.222443 24.2912 0.222443 20.2539V7.74674C0.222443 3.70774 3.5452 0.386719 7.58246 0.386719ZM21.1961 5.14194C22.0424 5.14194 22.7586 5.85817 22.7586 6.70447C22.7586 7.55077 22.0424 8.267 21.1961 8.267C20.2839 8.267 19.6335 7.55077 19.6335 6.70447C19.6335 5.85817 20.2856 5.14194 21.1961 5.14194ZM13.836 6.5744H13.9019C17.9409 6.5744 21.3279 9.96133 21.3279 14.0003C21.3279 18.1035 17.9409 21.4262 13.9019 21.4262H13.836C9.79706 21.4262 6.47603 18.1035 6.47603 14.0003C6.47603 9.96133 9.79879 6.5744 13.836 6.5744ZM13.836 9.11503H13.9019C16.5726 9.11503 18.7872 11.3296 18.7872 14.0003C18.7872 16.7369 16.5726 18.9515 13.9019 18.9515H13.836C11.1654 18.9515 8.95076 16.7369 8.95076 14.0003C8.95076 11.3296 11.1654 9.11503 13.836 9.11503ZM7.64836 2.73138H20.0896C22.8904 2.73138 25.1709 5.01188 25.1709 7.81264V20.1897C25.1709 22.9905 22.8904 25.271 20.0896 25.271H7.64836C4.8476 25.271 2.56711 22.9905 2.56711 20.1897V7.81264C2.56711 5.01188 4.8476 2.73138 7.64836 2.73138Z" fill="white"/>
</svg>
