<svg width="28" height="28" viewBox="0 0 28 28" fill="none" xmlns="http://www.w3.org/2000/svg">
<path fill-rule="evenodd" clip-rule="evenodd" d="M1.07723 9.6644H6.32497V27.2684H1.07723V9.6644ZM3.72191 0.731445C5.45612 0.731445 6.8435 2.16217 6.8435 3.89639C6.8435 5.63061 5.45612 7.06134 3.72191 7.06134C1.98769 7.06134 0.556961 5.67396 0.556961 3.89639C0.556961 2.11882 1.94433 0.731445 3.72191 0.731445ZM9.4032 9.6644H14.6509V12.1357C15.6915 10.5315 17.5558 9.44762 19.5952 9.44762H21.0259C24.3209 9.44762 27.0107 12.179 27.0107 15.4307V27.2684H21.8063V17.7719C21.763 15.7775 20.3756 14.2167 18.3812 14.1734C16.3869 14.2167 14.6527 15.7775 14.6527 17.7719V27.2684H9.40493V9.6644H9.4032Z" fill="white"/>
</svg>
