<svg width="29" height="23" viewBox="0 0 29 23" fill="none" xmlns="http://www.w3.org/2000/svg">
<path fill-rule="evenodd" clip-rule="evenodd" d="M14.1007 7.0232C12.9648 1.20143 20.0179 -2.25486 24.0899 1.91073C24.0899 1.91073 25.9368 1.43728 27.5461 0.443578C27.5461 0.443578 26.9305 2.38417 24.9899 3.66229C24.9899 3.66229 27.2149 3.33105 28.2086 2.7154C28.2086 2.7154 27.2149 4.75137 25.4148 5.50749C26.4085 18.8089 12.018 26.9025 0.419525 20.2761C0.419525 20.2761 6.19446 20.5605 8.56167 17.7199C8.56167 17.7199 5.10536 18.0979 3.30698 13.8387C3.30698 13.8387 4.5851 14.3121 5.9586 13.6496C5.9586 13.6496 1.83985 12.9872 1.46179 8.11229C1.46179 8.11229 2.78671 9.05917 4.25559 8.72794C4.25559 8.72794 -0.289785 6.02949 2.26819 1.05923C2.26819 1.05923 7.1448 7.21223 14.1025 7.0232H14.1007Z" fill="white"/>
</svg>
