<svg width="32" height="22" viewBox="0 0 32 22" fill="none" xmlns="http://www.w3.org/2000/svg">
<path fill-rule="evenodd" clip-rule="evenodd" d="M6.62609 0.544395C9.61415 0.275591 13.1381 0.161133 15.8192 0.161133C18.4621 0.161133 21.9861 0.275591 24.9741 0.544395C28.4599 0.851351 30.2982 1.38722 30.7959 4.94931C30.9866 6.51877 31.1028 8.74031 31.1028 11C31.1028 13.2597 30.9884 15.5194 30.7959 17.0888C30.2982 20.6509 28.4599 21.1868 24.9741 21.4937C21.9861 21.7625 18.4621 21.8388 15.8192 21.8388C13.1381 21.8388 9.61415 21.7625 6.62609 21.4937C3.14032 21.1868 1.30206 20.6509 0.804335 17.0888C0.613571 15.5194 0.497375 13.2579 0.497375 11C0.497375 8.74031 0.611837 6.51877 0.804335 4.94931C1.30206 1.38722 3.14032 0.851351 6.62609 0.544395Z" fill="white"/>
<path fill-rule="evenodd" clip-rule="evenodd" d="M12.4738 6.04346L21.1085 10.9999L12.4738 15.9979V6.04346Z" fill="url(#paint0_linear_408_31)"/>
<defs>
<linearGradient id="paint0_linear_408_31" x1="12.4738" y1="11.0605" x2="21.1085" y2="11.0605" gradientUnits="userSpaceOnUse">
<stop stop-color="#70C6CC"/>
<stop offset="1" stop-color="$blue"/>
</linearGradient>
</defs>
</svg>
