<svg width="28" height="14" viewBox="0 0 28 14" fill="none" xmlns="http://www.w3.org/2000/svg">
<path d="M0.754209 7.06365C0.754209 5.12271 1.29486 3.61159 2.37616 2.53029C3.45746 1.44899 4.96318 0.908335 6.8933 0.908335C8.87209 0.908335 10.3967 1.44088 11.4672 2.50596C12.5377 3.56564 13.0729 5.05243 13.0729 6.96633C13.0729 8.35581 12.8378 9.49658 12.3674 10.3887C11.9024 11.2753 11.2266 11.9674 10.34 12.4648C9.45869 12.9567 8.35847 13.2027 7.03928 13.2027C5.69846 13.2027 4.58743 12.9892 3.70616 12.5621C2.83031 12.135 2.11935 11.4591 1.5733 10.5346C1.02724 9.61012 0.754209 8.45312 0.754209 7.06365ZM4.42793 7.07987C4.42793 8.28011 4.6496 9.14245 5.09293 9.66689C5.54168 10.1913 6.14991 10.4535 6.91763 10.4535C7.70698 10.4535 8.31792 10.1967 8.75044 9.6831C9.18296 9.16949 9.39922 8.24768 9.39922 6.91767C9.39922 5.79853 9.17215 4.98214 8.718 4.46852C8.26926 3.9495 7.65833 3.68999 6.88519 3.68999C6.1445 3.68999 5.54979 3.9522 5.10104 4.47663C4.6523 5.00106 4.42793 5.86881 4.42793 7.07987ZM15.068 1.11108H18.7417V5.60389L22.5938 1.11108H27.4759L23.1453 5.59578L27.6705 13H23.1453L20.6394 8.10981L18.7417 10.0967V13H15.068V1.11108Z" fill="white"/>
</svg>
