<svg width="30" height="30" viewBox="0 0 30 30" fill="none" xmlns="http://www.w3.org/2000/svg">
<path d="M19.6371 15.8875C20.8626 14.9233 21.7571 13.6012 22.1962 12.1049C22.6352 10.6087 22.597 9.01284 22.0869 7.53934C21.5767 6.06584 20.6199 4.78799 19.3497 3.88357C18.0795 2.97915 16.5589 2.49313 14.9996 2.49313C13.4403 2.49313 11.9198 2.97915 10.6495 3.88357C9.37931 4.78799 8.42256 6.06584 7.9124 7.53934C7.40223 9.01284 7.36402 10.6087 7.80308 12.1049C8.24214 13.6012 9.13664 14.9233 10.3621 15.8875C8.26223 16.7288 6.42999 18.1242 5.06075 19.9249C3.6915 21.7256 2.83658 23.8641 2.58713 26.1125C2.56907 26.2767 2.58353 26.4428 2.62966 26.6013C2.6758 26.7599 2.75271 26.9078 2.85602 27.0367C3.06465 27.2969 3.36811 27.4635 3.69963 27.5C4.03115 27.5365 4.36358 27.4397 4.62379 27.2311C4.88399 27.0225 5.05066 26.719 5.08713 26.3875C5.36161 23.944 6.52674 21.6873 8.3599 20.0485C10.1931 18.4097 12.5658 17.5038 15.0246 17.5038C17.4835 17.5038 19.8562 18.4097 21.6894 20.0485C23.5225 21.6873 24.6876 23.944 24.9621 26.3875C24.9961 26.6947 25.1427 26.9783 25.3735 27.1838C25.6044 27.3892 25.9031 27.5019 26.2121 27.5H26.3496C26.6773 27.4623 26.9768 27.2966 27.1828 27.0391C27.3889 26.7815 27.4848 26.453 27.4496 26.125C27.199 23.8703 26.3395 21.7262 24.9632 19.9228C23.5869 18.1193 21.7458 16.7244 19.6371 15.8875ZM14.9996 15C14.0107 15 13.044 14.7068 12.2218 14.1574C11.3995 13.6079 10.7587 12.8271 10.3802 11.9134C10.0018 10.9998 9.90278 9.99446 10.0957 9.02455C10.2886 8.05465 10.7648 7.16373 11.4641 6.46447C12.1634 5.76521 13.0543 5.289 14.0242 5.09608C14.9941 4.90315 15.9994 5.00217 16.913 5.38061C17.8267 5.75904 18.6076 6.39991 19.157 7.22215C19.7064 8.0444 19.9996 9.0111 19.9996 10C19.9996 11.3261 19.4728 12.5979 18.5352 13.5355C17.5975 14.4732 16.3257 15 14.9996 15Z" fill="white"/>
</svg>
