<svg width="125" height="201" viewBox="0 0 125 201" fill="none" xmlns="http://www.w3.org/2000/svg">
<path d="M0 21.9681V43.9361H103.085C108.278 43.9361 112.484 48.1628 112.484 53.3808C112.484 58.5989 108.278 62.8255 103.085 62.8255H21.8633C9.76319 62.8255 0 72.6877 0 84.7936C0 96.8995 9.81512 106.762 21.8633 106.762H103.085C108.278 106.762 112.484 110.988 112.484 116.206C112.484 121.424 108.278 125.651 103.085 125.651H21.8633C9.76319 125.651 0 135.513 0 147.619C0 153.776 2.49273 159.36 6.54342 163.326C2.49273 167.291 0 172.875 0 179.032C0 191.19 9.81512 201 21.8633 201H124.948V188.424H21.8633C16.6701 188.424 12.4636 184.198 12.4636 178.98C12.4636 173.762 16.6701 169.535 21.8633 169.535H124.948V156.959H21.8633C16.6701 156.959 12.4636 152.733 12.4636 147.515C12.4636 142.297 16.6701 138.07 21.8633 138.07H103.085C115.185 138.07 124.948 128.208 124.948 116.102C124.948 103.996 115.133 94.1339 103.085 94.1339H74.9377V75.2967H103.085C115.185 75.2967 124.948 65.4346 124.948 53.3287C124.948 41.2227 115.133 31.3606 103.085 31.3606H12.4636V21.9681C12.4636 16.75 16.6701 12.5234 21.8633 12.5234H103.085C108.278 12.5234 112.484 16.75 112.484 21.9681H125C125 9.80997 115.185 0 103.137 0H21.8633C9.76319 0 0 9.80997 0 21.9681ZM62.474 75.3489V94.1861H21.8633C16.6701 94.1861 12.4636 89.9595 12.4636 84.7414C12.4636 79.5234 16.6701 75.2967 21.8633 75.2967H62.474V75.3489Z" fill="white"/>
</svg>
