<svg width="62" height="38" viewBox="0 0 62 38" fill="none" xmlns="http://www.w3.org/2000/svg">
<g clip-path="url(#clip0_26_4)">
<path d="M55.2238 -2.96198e-07L48.4476 -5.92396e-07L48.4476 31.3378C48.4476 32.9165 47.1438 34.1953 45.5343 34.1953C43.9247 34.1953 42.621 32.9165 42.621 31.3378L42.621 6.64645C42.621 2.96801 39.5789 -9.80057e-07 35.8448 -1.14328e-06C32.1106 -1.30651e-06 29.0685 2.9838 29.0685 6.64645L29.0685 31.3378C29.0685 32.9165 27.7648 34.1953 26.1552 34.1953C24.5457 34.1953 23.242 32.9165 23.242 31.3378L23.242 6.64645C23.242 2.96801 20.1999 -1.82714e-06 16.4657 -1.99037e-06C14.5665 -2.07339e-06 12.8442 0.757788 11.621 1.9892C10.3977 0.757788 8.6755 -2.33089e-06 6.77622 -2.41391e-06C3.02596 -2.57784e-06 -1.30426e-07 2.98379 -2.90525e-07 6.64645L-1.66034e-06 37.9842L3.87902 37.9842L3.87902 6.64645C3.87902 5.06772 5.18277 3.78895 6.79232 3.78895C8.40187 3.78895 9.70561 5.06772 9.70561 6.64645L9.70561 37.9842L13.5846 37.9842L13.5846 6.64645C13.5846 5.06772 14.8884 3.78895 16.4979 3.78895C18.1075 3.78895 19.4112 5.06772 19.4112 6.64645L19.4112 31.3378C19.4112 35.0162 22.4533 37.9842 26.1874 37.9842C29.9216 37.9842 32.9637 35.0004 32.9637 31.3378L32.9637 22.7811L38.7741 22.7811L38.7741 31.3378C38.7741 35.0162 41.8162 37.9842 45.5504 37.9842C49.2845 37.9842 52.3266 35.0004 52.3266 31.3378L52.3266 3.78895L55.2238 3.78895C56.8333 3.78895 58.1371 5.06772 58.1371 6.64645L58.1371 31.3378C58.1371 32.9165 56.8333 34.1953 55.2238 34.1953L55.2238 38C58.974 38 62 35.0162 62 31.3536L62 6.64645C62 2.96801 58.974 -1.32269e-07 55.2238 -2.96198e-07ZM38.758 18.9921L32.9476 18.9921L32.9476 6.64645C32.9476 5.06772 34.2513 3.78895 35.8609 3.78895C37.4704 3.78895 38.7741 5.06772 38.7741 6.64645L38.7741 18.9921L38.758 18.9921Z" fill="white"/>
</g>
<defs>
<clipPath id="clip0_26_4">
<rect width="38" height="62" fill="white" transform="translate(62) rotate(90)"/>
</clipPath>
</defs>
</svg>
